<svg width="1440" height="446" viewBox="0 0 1440 446" fill="none" xmlns="http://www.w3.org/2000/svg">
<g filter="url(#filter0_dd_10_29)">
<rect x="-9" y="7" width="1435.94" height="424" rx="6" fill="url(#paint0_linear_10_29)"/>
</g>
<g filter="url(#filter1_dd_10_29)">
<path d="M-9 218.461C-9 215.295 -6.36923 212.886 -3.27068 213.536C108.749 237.051 736.018 251.884 1098.38 275.584C1175.05 280.598 1431 312.228 1431 312.228L1428.97 421.177C1428.97 424.034 1422.88 430.107 1408.66 431H0.353101C-1.67991 431 -3.57459 429.971 -4.68083 428.265L-8.03398 423.095C-8.66448 422.122 -9 420.989 -9 419.83V218.461Z" fill="#9D6381"/>
</g>
<g filter="url(#filter2_dd_10_29)">
<path d="M1426.94 254.718C1426.94 258.347 1423.77 261.062 1420.23 260.247C1304.7 233.6 651.87 231.121 279.001 199.384C39.6767 179.014 -8.99936 145.43 -8.99936 145.43L-6.97406 18.4491C-6.97406 15.1185 -0.898012 8.04082 13.2791 6.99998L1417.34 7.00003C1419.52 7.00003 1421.52 8.18257 1422.58 10.0889L1426.19 16.5918C1426.69 17.4825 1426.94 18.4844 1426.94 19.503L1426.94 254.718Z" fill="#612940"/>
</g>
<defs>
<filter id="filter0_dd_10_29" x="-20" y="0" width="1457.94" height="446" filterUnits="userSpaceOnUse" color-interpolation-filters="sRGB">
<feFlood flood-opacity="0" result="BackgroundImageFix"/>
<feColorMatrix in="SourceAlpha" type="matrix" values="0 0 0 0 0 0 0 0 0 0 0 0 0 0 0 0 0 0 127 0" result="hardAlpha"/>
<feOffset dy="1"/>
<feGaussianBlur stdDeviation="1.5"/>
<feColorMatrix type="matrix" values="0 0 0 0 0 0 0 0 0 0 0 0 0 0 0 0 0 0 0.3 0"/>
<feBlend mode="normal" in2="BackgroundImageFix" result="effect1_dropShadow_10_29"/>
<feColorMatrix in="SourceAlpha" type="matrix" values="0 0 0 0 0 0 0 0 0 0 0 0 0 0 0 0 0 0 127 0" result="hardAlpha"/>
<feMorphology radius="3" operator="dilate" in="SourceAlpha" result="effect2_dropShadow_10_29"/>
<feOffset dy="4"/>
<feGaussianBlur stdDeviation="4"/>
<feColorMatrix type="matrix" values="0 0 0 0 0 0 0 0 0 0 0 0 0 0 0 0 0 0 0.15 0"/>
<feBlend mode="normal" in2="effect1_dropShadow_10_29" result="effect2_dropShadow_10_29"/>
<feBlend mode="normal" in="SourceGraphic" in2="effect2_dropShadow_10_29" result="shape"/>
</filter>
<filter id="filter1_dd_10_29" x="-20" y="206.429" width="1462" height="239.571" filterUnits="userSpaceOnUse" color-interpolation-filters="sRGB">
<feFlood flood-opacity="0" result="BackgroundImageFix"/>
<feColorMatrix in="SourceAlpha" type="matrix" values="0 0 0 0 0 0 0 0 0 0 0 0 0 0 0 0 0 0 127 0" result="hardAlpha"/>
<feOffset dy="1"/>
<feGaussianBlur stdDeviation="1.5"/>
<feColorMatrix type="matrix" values="0 0 0 0 0 0 0 0 0 0 0 0 0 0 0 0 0 0 0.3 0"/>
<feBlend mode="normal" in2="BackgroundImageFix" result="effect1_dropShadow_10_29"/>
<feColorMatrix in="SourceAlpha" type="matrix" values="0 0 0 0 0 0 0 0 0 0 0 0 0 0 0 0 0 0 127 0" result="hardAlpha"/>
<feMorphology radius="3" operator="dilate" in="SourceAlpha" result="effect2_dropShadow_10_29"/>
<feOffset dy="4"/>
<feGaussianBlur stdDeviation="4"/>
<feColorMatrix type="matrix" values="0 0 0 0 0 0 0 0 0 0 0 0 0 0 0 0 0 0 0.15 0"/>
<feBlend mode="normal" in2="effect1_dropShadow_10_29" result="effect2_dropShadow_10_29"/>
<feBlend mode="normal" in="SourceGraphic" in2="effect2_dropShadow_10_29" result="shape"/>
</filter>
<filter id="filter2_dd_10_29" x="-19.9995" y="-1.52588e-05" width="1457.94" height="275.392" filterUnits="userSpaceOnUse" color-interpolation-filters="sRGB">
<feFlood flood-opacity="0" result="BackgroundImageFix"/>
<feColorMatrix in="SourceAlpha" type="matrix" values="0 0 0 0 0 0 0 0 0 0 0 0 0 0 0 0 0 0 127 0" result="hardAlpha"/>
<feOffset dy="1"/>
<feGaussianBlur stdDeviation="1.5"/>
<feColorMatrix type="matrix" values="0 0 0 0 0 0 0 0 0 0 0 0 0 0 0 0 0 0 0.3 0"/>
<feBlend mode="normal" in2="BackgroundImageFix" result="effect1_dropShadow_10_29"/>
<feColorMatrix in="SourceAlpha" type="matrix" values="0 0 0 0 0 0 0 0 0 0 0 0 0 0 0 0 0 0 127 0" result="hardAlpha"/>
<feMorphology radius="3" operator="dilate" in="SourceAlpha" result="effect2_dropShadow_10_29"/>
<feOffset dy="4"/>
<feGaussianBlur stdDeviation="4"/>
<feColorMatrix type="matrix" values="0 0 0 0 0 0 0 0 0 0 0 0 0 0 0 0 0 0 0.15 0"/>
<feBlend mode="normal" in2="effect1_dropShadow_10_29" result="effect2_dropShadow_10_29"/>
<feBlend mode="normal" in="SourceGraphic" in2="effect2_dropShadow_10_29" result="shape"/>
</filter>
<linearGradient id="paint0_linear_10_29" x1="708.972" y1="7" x2="708.972" y2="139.028" gradientUnits="userSpaceOnUse">
<stop stop-color="#CBE280"/>
<stop offset="0.0817308" stop-color="white"/>
</linearGradient>
</defs>
</svg>
